<svg xmlns="http://www.w3.org/2000/svg" width="28.924" height="24" viewBox="0 0 28.924 24">
  <g id="Group_1945" data-name="Group 1945" transform="translate(-38.732 -35.605)">
    <path id="Path_5" data-name="Path 5" d="M39.428,37l4.4.025,3.491,15.408a.7.7,0,0,0,.682.545H64.47a.7.7,0,0,0,.68-.537l2.486-10.353a.7.7,0,0,0-.679-.863L50.233,41.2h0a.7.7,0,0,0,0,1.4l15.84.027-2.151,8.957H48.578l-3.5-15.405c0-.018-.012-.033-.017-.05s-.015-.049-.024-.073A.606.606,0,0,0,45,35.987c-.009-.016-.017-.033-.027-.049a.732.732,0,0,0-.06-.073.273.273,0,0,0-.025-.028.718.718,0,0,0-.081-.068l-.021-.016a.68.68,0,0,0-.1-.054l-.02-.01a.733.733,0,0,0-.111-.035l-.02-.006a.754.754,0,0,0-.114-.012l-.023,0h-.022l-4.94-.028h0a.7.7,0,0,0,0,1.4Z" transform="translate(0 0)" fill="#fff"/>
    <path id="Path_6" data-name="Path 6" d="M60.289,60.309H56.523a2.912,2.912,0,1,0,.015,1.4h3.736a2.916,2.916,0,1,0,.015-1.4Zm-6.584,2.243a1.515,1.515,0,1,1,1.516-1.516A1.517,1.517,0,0,1,53.705,62.553Zm10.917-1.516a1.515,1.515,0,1,1-1.516-1.515A1.517,1.517,0,0,1,64.622,61.037Z" transform="translate(-2.328 -4.346)" fill="#fff"/>
  </g>
</svg>
