<svg xmlns="http://www.w3.org/2000/svg" width="27.357" height="24" viewBox="0 0 27.357 24">
  <g id="store" transform="translate(0.25 -31.75)">
    <g id="Group_3559" data-name="Group 3559" transform="translate(0 32)">
      <path id="Path_55061" data-name="Path 55061" d="M26.832,39.35l-1.679-6.714A.838.838,0,0,0,24.339,32H2.518a.838.838,0,0,0-.814.636L.025,39.35a.821.821,0,0,0-.025.2,4.257,4.257,0,0,0,1.679,3.409v11.7a.84.84,0,0,0,.839.839h8.393a.84.84,0,0,0,.839-.839V48.786h3.357v5.875a.84.84,0,0,0,.839.839h8.393a.84.84,0,0,0,.839-.839v-11.7a4.257,4.257,0,0,0,1.679-3.409A.821.821,0,0,0,26.832,39.35ZM23.5,53.821H16.786V47.946a.84.84,0,0,0-.839-.839H10.911a.84.84,0,0,0-.839.839v5.875H3.357V43.683a3.723,3.723,0,0,0,.629.067,3.915,3.915,0,0,0,3.147-1.623,3.863,3.863,0,0,0,6.295,0,3.863,3.863,0,0,0,6.295,0,3.915,3.915,0,0,0,3.147,1.623,3.723,3.723,0,0,0,.629-.067Zm-.629-11.75a2.423,2.423,0,0,1-2.308-2.518.839.839,0,1,0-1.679,0,2.423,2.423,0,0,1-2.308,2.518,2.423,2.423,0,0,1-2.308-2.518.839.839,0,1,0-1.679,0,2.423,2.423,0,0,1-2.308,2.518,2.423,2.423,0,0,1-2.308-2.518.839.839,0,1,0-1.679,0,2.423,2.423,0,0,1-2.308,2.518,2.414,2.414,0,0,1-2.306-2.42l1.494-5.972h20.51l1.494,5.972A2.417,2.417,0,0,1,22.871,42.071Z" transform="translate(0 -32)" fill="#fff" stroke="#101433" stroke-width="0.5"/>
    </g>
  </g>
</svg>
